<?xml version="1.0" encoding="UTF-8"?>
<svg id="Layer_2" data-name="Layer 2" xmlns="http://www.w3.org/2000/svg" viewBox="0 0 459.09 512">
  <defs>
    <style>
      .cls-1 {
        fill: #5459a7;
      }
    </style>
  </defs>
  <g id="Layer_1-2" data-name="Layer 1">
    <path class="cls-1" d="M233.69,0l42.1,6.28c45.7,11.02,92.71,22.18,137.19,37.37,31.88,10.89,39.27,23.65,43.11,56.67l3,39.41v26.95l-2,28.44c-9.31,101.82-57.71,198.57-134.62,265.5-24.9,21.67-53.06,41.31-84.79,51.39h-16.95c-20.6-6.3-39.25-17.22-56.74-29.55C77.94,421.78,19.58,322.04,4.47,217.91L.32,182.64c.74-19.41-1-39.56,0-58.88,1.11-21.43,2.72-51.49,19.42-66.89,13.14-12.11,47.57-19.86,65.58-25.2C127.54,19.16,182.39,2.48,225.71,0h7.98ZM217.54,36.23c-40.99,3.43-99.15,21.86-139.19,34.37-7.89,2.47-26.01,6.88-32.1,10.79-7.77,5-8.1,18.26-9.02,26.91-10.08,94.86,12.53,190.51,68.99,267.29,25.61,34.83,71.15,80.25,111.16,97.35,12.94,5.53,13.99,4.76,26.64-1,51.7-23.54,106.2-85.8,133.46-134.92,38.14-68.72,56.26-163.78,42.58-241.56-1.87-10.65-4.05-13.07-14.04-16.89-19.14-7.33-43.58-13.56-63.62-19.18-35.77-10.03-88.4-26.2-124.86-23.16Z"/>
  </g>
</svg>