<?xml version="1.0" encoding="UTF-8"?>
<svg id="Layer_1" xmlns="http://www.w3.org/2000/svg" version="1.1" xmlns:xlink="http://www.w3.org/1999/xlink" viewBox="0 0 300 80">
  <!-- Generator: Adobe Illustrator 29.8.1, SVG Export Plug-In . SVG Version: 2.1.1 Build 2)  -->
  <defs>
    <style>
      .st0 {
        fill: url(#linear-gradient2);
      }

      .st1 {
        fill: url(#linear-gradient1);
      }

      .st2 {
        fill: #2d9dd8;
      }

      .st3 {
        fill: #231815;
      }

      .st4 {
        fill: url(#linear-gradient);
      }
    </style>
    <linearGradient id="linear-gradient" x1="100.98" y1="-236.42" x2="100.98" y2="-180.37" gradientTransform="translate(-83.38 -173.26) scale(1 -1)" gradientUnits="userSpaceOnUse">
      <stop offset="0" stop-color="#ef9ec3"/>
      <stop offset="1" stop-color="#b5b6b6" stop-opacity=".4"/>
    </linearGradient>
    <linearGradient id="linear-gradient1" x1="137.05" y1="-235.97" x2="137.05" y2="-179.91" xlink:href="#linear-gradient"/>
    <linearGradient id="linear-gradient2" x1="153.27" y1="-252.82" x2="153.27" y2="-199.52" gradientTransform="translate(-83.38 -173.26) scale(1 -1)" gradientUnits="userSpaceOnUse">
      <stop offset="0" stop-color="#15a1db"/>
      <stop offset="1" stop-color="#2d9dd8" stop-opacity=".4"/>
    </linearGradient>
  </defs>
  <path class="st4" d="M31.31,52.64c-.69,1.3-3.29,6.25-7.64,6.88-2.46.35-2.87-1.07-5.73-1.15-5.85-.17-8.45,5.7-11.75,4.68-2.34-.73-3.16-4.36-3.82-7.44-.24-1.19-1.25-6.37.76-14.9.95-3.97,2.66-7.75,6.02-15.28,1.27-3.17,2.84-6.2,4.68-9.08,2.16-3.14,4.77-5.94,7.75-8.31,1.59-.92,3.48-1.16,5.24-.67,2.48.89,3.62,3.56,4.49,6.4,2.22,7.14,2.05,12.99,1.91,23.59-.11,9.26-.08,11.8-1.91,15.28Z"/>
  <path class="st1" d="M39.95,52.18c.69,1.3,3.3,6.25,7.64,6.88,2.48.35,2.87-1.07,5.73-1.15,5.87-.17,8.45,5.7,11.75,4.68,2.35-.73,3.16-4.36,3.82-7.46.24-1.18,1.27-6.36-.76-14.9-.95-3.96-2.64-7.73-6.02-15.28-1.27-3.16-2.83-6.2-4.68-9.06-2.16-3.13-4.76-5.93-7.73-8.31-1.59-.92-3.49-1.16-5.26-.67-2.46.89-3.61,3.56-4.49,6.4-2.2,7.14-2.03,12.99-1.91,23.59.12,9.26.08,11.8,1.91,15.28Z"/>
  <path class="st3" d="M37.99.44l-.49,15.11c-.01,1.33-.11,2.66-.29,3.97-.25,1.48-.86,2.88-1.76,4.08-.9,1.15-2.03,2.08-3.33,2.74-1.18.64-2.31,1.12-3.33,1.71-2.05,1.08-3.7,2.79-4.69,4.89-.95,2.08-.92,4.69-1.65,7.2-1.63,4.92-5.29,8.92-10.06,10.97,4.44-2.31,7.69-6.4,8.94-11.25.52-2.34.24-4.92,1.16-7.55.99-2.56,2.77-4.74,5.09-6.22,2.25-1.53,4.58-2.43,5.53-4.14.55-.86.88-1.84.98-2.86.06-1.19.06-2.37,0-3.56l-.66-15.01,4.55-.09Z"/>
  <path class="st3" d="M37.99.53l-.67,15.01c-.06,1.19-.06,2.37,0,3.56.1,1.01.44,1.99.98,2.86,1.02,1.71,3.3,2.67,5.53,4.14,2.32,1.47,4.11,3.65,5.09,6.22.92,2.63.64,5.21,1.16,7.55,1.25,4.85,4.51,8.94,8.96,11.25-4.77-2.05-8.43-6.04-10.06-10.97-.75-2.51-.7-5.12-1.65-7.2-1-2.09-2.65-3.81-4.71-4.89-1.02-.6-2.14-1.07-3.33-1.71-1.3-.66-2.43-1.59-3.33-2.74-.9-1.2-1.5-2.6-1.76-4.08-.17-1.32-.27-2.64-.29-3.97l-.47-15.11,4.55.09Z"/>
  <path class="st0" d="M52.63,56.08c-.89-.21-5.32-2.22-5.3-6.53-.18-3.68,2.66-6.8,6.34-6.97s6.8,2.66,6.97,6.34c.01.21.01.43,0,.64,0,4.37-4.58,6.36-5.42,6.54l.12,10.21c.2,2.66,1.28,5.17,3.06,7.15,1.42,1.82,3.49,3,5.78,3.3,2.26.07,4.46-.75,6.11-2.29,2.39-2.11,3.83-5.09,4-8.27v-8.92c-1.1-.43-2.12-1.01-3.06-1.73-1.99-1.53-2.48-2.86-4.58-6.43-.7-1.19-2.4-3.88-5.78-9.28-2.63-3.07-2.27-7.69.8-10.32.03-.03.07-.06.1-.09.67-.72,1.51-1.24,2.45-1.53.57-.16,1.17-.2,1.76-.14.17-.33.4-.63.67-.87.59-.48,1.35-.7,2.11-.61,1.49.25,2.49,1.66,2.24,3.15-.19,1.15-1.09,2.05-2.24,2.24-.59.03-1.18-.11-1.7-.38-.47-.25-.87-.62-1.18-1.05-1.6.53-2.9,1.71-3.58,3.25-.43,1.03-.51,2.16-.24,3.24.16.58.41,1.13.76,1.62l2.6,3.96c2.11,3.39,4.21,6.79,6.3,10.18,1.11,1.4,2.8,2.22,4.58,2.23.84-.09,1.76-.5,3.53-2.49,2.34-2.64,2.22-3.59,5.36-8.53,1.15-1.79,2.14-3.68,3.35-5.42.18-.29.38-.66.64-1.16,1.27-2.19.52-5-1.67-6.27-.63-.36-1.33-.57-2.06-.61-.78.85-1.92,1.25-3.06,1.07-1-.17-1.84-.85-2.2-1.8-.19-.72-.06-1.49.35-2.11.55-.73,1.41-1.14,2.32-1.12.99.05,1.9.57,2.43,1.41.58,0,1.15.09,1.7.26.87.3,1.68.78,2.37,1.39,1.26.89,2.23,2.13,2.77,3.58.37,1.14.42,2.36.14,3.53-.17.7-.46,1.37-.86,1.97-1.09,1.73-2.8,4.58-5.06,8.34l-4.58,7.93c-.74.66-1.57,1.21-2.48,1.62-.78.36-1.6.62-2.45.76v9.37c-.15,3.9-1.87,7.57-4.77,10.18-2.05,1.87-4.72,2.92-7.5,2.95-3.26-.25-6.27-1.83-8.31-4.39-2.09-2.39-3.33-5.39-3.53-8.56l-.11-10.54Z"/>
  <polygon class="st2" points="77.71 23.25 72.43 29.9 75.31 29.9 73.63 34.65 78.93 28.02 76.01 28.02 77.71 23.25"/>
  <path class="st3" d="M104.52,21.78c1.64-.03,3.28.11,4.89.43,1.12.23,2.2.65,3.19,1.24.76.47,1.37,1.15,1.77,1.95.36.79.54,1.65.53,2.51,0,.77-.13,1.54-.39,2.27-.25.72-.64,1.38-1.13,1.95-.51.62-1.14,1.13-1.84,1.52-.83.42-1.71.74-2.62.96h0c.74.14,1.44.43,2.05.85.53.36.98.83,1.31,1.38.35.57.61,1.19.78,1.84,0,.71.35,1.49.5,2.3s.28,1.66.39,2.37c.1.63.25,1.24.46,1.84.17.45.44.86.78,1.2.41.3.91.45,1.42.43h1.13v1.42h-2.76c-.85.03-1.7-.09-2.51-.35-.55-.2-1.03-.56-1.38-1.03-.34-.54-.56-1.14-.67-1.77,0-.74-.25-1.59-.39-2.55s-.35-2.66-.53-3.54c-.12-.82-.38-1.61-.78-2.34-.28-.56-.74-.99-1.31-1.24-.72-.3-1.49-.43-2.27-.39h-3.54v11.58h3.86v1.45h-11.02v-1.45h3.54v-23.52h-3.54v-1.45l10.1.14ZM101.69,33.32l2.44.32c1.09.04,2.19-.04,3.26-.25.78-.17,1.51-.52,2.13-1.03.55-.48.96-1.11,1.17-1.81.12-.86.12-1.73,0-2.59.11-.73.11-1.47,0-2.2-.16-.58-.51-1.09-.99-1.45-.61-.43-1.32-.71-2.05-.81-1.11-.21-2.24-.3-3.37-.28h-2.62l.04,10.1Z"/>
  <path class="st3" d="M132.68,42.92h.71l.71.21c-.27,1.57-1.07,2.99-2.27,4.04-1.24.98-2.78,1.48-4.36,1.42-1.12.02-2.24-.21-3.26-.67-.93-.4-1.76-.99-2.44-1.74-.67-.75-1.19-1.63-1.52-2.59-.36-1.01-.54-2.08-.53-3.15-.01-1.11.18-2.22.57-3.26.32-.98.84-1.88,1.52-2.66.68-.76,1.51-1.36,2.44-1.77.99-.46,2.06-.69,3.15-.67.99-.02,1.97.17,2.87.57.83.35,1.57.88,2.16,1.56.61.7,1.08,1.52,1.38,2.41.33.99.5,2.03.5,3.08h-10.95c-.01.14-.01.28,0,.43h0c-.03,1.19.08,2.38.32,3.54.15.76.46,1.48.89,2.13.35.47.83.83,1.38,1.03.57.18,1.17.26,1.77.25.56,0,1.12-.07,1.66-.21.52-.14,1.01-.39,1.42-.74M130.8,38.25c-.01-.82-.12-1.64-.32-2.44-.12-.53-.36-1.03-.71-1.45-.27-.34-.62-.6-1.03-.74-.43-.12-.87-.18-1.31-.18-.47,0-.94.07-1.38.21-.45.15-.85.42-1.17.78-.36.43-.65.92-.85,1.45-.23.77-.39,1.57-.46,2.37,1.18-.06,2.36-.06,3.54,0,1.1,0,2.37.07,3.54.18l.14-.18Z"/>
  <path class="st3" d="M147.95,37.86c-.05-.67-.19-1.34-.39-1.98-.18-.5-.46-.95-.81-1.35-.34-.35-.77-.61-1.24-.74-.53-.15-1.08-.22-1.63-.21-.43-.06-.88-.06-1.31,0-.38.06-.74.19-1.06.39-.27.2-.5.46-.67.74-.09.35-.09.71,0,1.06-.1.36-.1.74,0,1.1.18.3.44.54.74.71.41.26.85.46,1.31.6l1.98.71,1.88.67c.59.24,1.15.54,1.66.92.48.36.89.8,1.2,1.31.31.58.46,1.22.46,1.88.01.77-.18,1.53-.57,2.2-.37.61-.88,1.14-1.49,1.52-.65.42-1.37.72-2.13.89-.79.21-1.6.32-2.41.32h-1.42l-1.45-.21c-.46,0-.92-.18-1.35-.32-.39-.09-.77-.2-1.13-.35v-5.28h1.28c.02.79.15,1.58.39,2.34.14.56.42,1.07.81,1.49.36.38.81.66,1.31.81.59.16,1.2.24,1.81.25.48.04.97.04,1.45,0,.41-.08.81-.24,1.17-.46.32-.19.59-.46.78-.78.1-.37.1-.76,0-1.13.08-.34.08-.69,0-1.03-.16-.29-.39-.54-.67-.71-.4-.24-.81-.44-1.24-.6l-1.77-.6-1.98-.78c-.6-.23-1.17-.54-1.7-.92-.46-.37-.85-.83-1.13-1.35-.33-.58-.49-1.24-.46-1.91-.02-.74.16-1.48.53-2.13.32-.6.78-1.11,1.35-1.49.59-.4,1.25-.69,1.95-.85.74-.2,1.5-.3,2.27-.28.42-.03.85-.03,1.28,0h1.28l1.24.25,1.1.28v4.89l-1.2.14Z"/>
  <path class="st3" d="M169.94,37.01c-.34-.94-.85-1.81-1.52-2.55-.63-.71-1.4-1.28-2.27-1.66-.91-.39-1.88-.58-2.87-.57-.99-.02-1.96.21-2.83.67-.9.48-1.62,1.22-2.09,2.13h0v-2.3h-5.99v1.45h2.66v22.74h0v1.45h3.26v-1.88h0v-10.31h0c.48.87,1.19,1.58,2.05,2.05.84.45,1.78.69,2.73.67.96,0,1.92-.21,2.8-.6.89-.38,1.69-.95,2.34-1.66.71-.75,1.25-1.65,1.59-2.62.42-1.13.62-2.33.6-3.54.05-1.18-.11-2.35-.46-3.47ZM166.4,43.91c-.12.75-.4,1.46-.81,2.09-.31.46-.76.8-1.28.99-.5.19-1.03.28-1.56.28h-.89c-.34-.07-.67-.18-.99-.32-.37-.18-.7-.42-.99-.71-.38-.33-.68-.74-.89-1.2-.28-.59-.48-1.2-.6-1.84-.18-.86-.27-1.74-.25-2.62,0-.9.09-1.8.25-2.69.14-.77.42-1.52.81-2.2.71-1.28,2.08-2.05,3.54-1.98.54,0,1.08.1,1.59.28.51.21.96.57,1.28,1.03.4.64.67,1.35.81,2.09.22,1.17.31,2.35.28,3.54.06,1.09,0,2.18-.18,3.26h-.14Z"/>
  <path class="st3" d="M179.01,46.75h2.73v1.45h-8.71v-1.45h2.73v-12.57h-2.3v-1.45h5.67l-.11,14.03Z"/>
  <path class="st3" d="M177.38,27.58c-.29,0-.58-.06-.85-.18-.27-.09-.51-.23-.71-.43-.2-.19-.35-.42-.46-.67-.24-.57-.24-1.2,0-1.77.11-.25.27-.48.46-.67.2-.21.44-.36.71-.46.27-.12.56-.18.85-.18.28-.04.57-.04.85,0,.26.11.5.27.71.46.2.19.35.42.46.67.11.28.17.58.18.89,0,.3-.06.6-.18.89-.12.25-.28.49-.46.71-.21.18-.45.33-.71.43-.26.17-.55.27-.85.32Z"/>
  <path class="st3" d="M192.58,48.2h-8.93v-1.45h2.73v-12.57h-2.51v-1.45h5.81v2.94h0c.44-.9,1.08-1.69,1.88-2.3.35-.3.76-.53,1.2-.67.43-.17.89-.25,1.35-.25.66-.02,1.31.2,1.81.64.49.46.74,1.11.71,1.77.03.57-.17,1.14-.57,1.56-.38.36-.89.56-1.42.53-.52.03-1.02-.16-1.38-.53-.33-.36-.51-.83-.5-1.31.01-.31.07-.63.18-.92-.48.19-.93.47-1.31.81-.44.39-.8.86-1.06,1.38-.33.61-.56,1.27-.71,1.95-.18.8-.26,1.62-.25,2.44v6.13h2.9l.07,1.31Z"/>
  <path class="st3" d="M213.48,48.2c-.42.05-.85.05-1.28,0h-1.03c-.53.07-1.06.07-1.59,0-.36-.07-.7-.23-.99-.46-.24-.18-.43-.42-.53-.71-.12-.29-.19-.61-.21-.92h0c-.31.45-.68.85-1.1,1.2-.37.32-.79.58-1.24.78-.4.2-.83.35-1.28.43-.45.03-.9.03-1.35,0-.67.01-1.35-.1-1.98-.32-.55-.18-1.06-.47-1.49-.85-.4-.35-.7-.78-.89-1.28-.21-.53-.32-1.09-.32-1.66-.03-1.67.95-3.19,2.48-3.86,2.23-1,4.65-1.48,7.08-1.42v-2.76c.1-.83-.15-1.66-.67-2.3-.6-.5-1.38-.75-2.16-.67-.6,0-1.19.07-1.77.21-.44.12-.86.32-1.24.57.26.26.47.56.64.89.13.29.21.6.21.92.02.98-.76,1.79-1.73,1.81-.04,0-.07,0-.11,0-.48.02-.95-.14-1.31-.46-.18-.17-.33-.37-.43-.6-.04-.27-.04-.54,0-.81,0-.51.15-1.02.43-1.45.29-.51.71-.93,1.2-1.24.61-.42,1.3-.72,2.02-.89.93-.23,1.88-.33,2.83-.32.77-.02,1.55.07,2.3.25.63.16,1.22.45,1.74.85.48.42.83.96,1.03,1.56.26.79.38,1.61.35,2.44v8.18c.02.31.09.61.21.89.06.2.22.36.43.43.27.07.55.07.81,0h1.06l-.14,1.59ZM207.77,40.73c-1.07,0-2.14.1-3.19.28-.68.11-1.33.35-1.91.71-.41.25-.72.62-.89,1.06-.18.46-.26.96-.25,1.45-.07.76.14,1.52.6,2.13.4.48,1.01.74,1.63.71.42,0,.84-.09,1.24-.25.49-.17.95-.43,1.35-.78.42-.39.77-.86,1.03-1.38.27-.7.41-1.45.39-2.2v-1.74Z"/>
  <path class="st3" d="M222.79,23.23v11.09h2.41c.67.04,1.35.04,2.02,0,.49-.01.95-.2,1.31-.53.39-.36.66-.83.78-1.35.19-.85.31-1.72.35-2.59h1.28v10.95h-1.28c-.04-.89-.15-1.78-.32-2.66-.1-.55-.35-1.06-.71-1.49-.36-.34-.82-.55-1.31-.6-.71-.06-1.42-.06-2.13,0h-2.41v10.95h3.08v1.45h-10.27v-1.45h3.54v-23.52h-3.54v-1.45h20.26l.43,7.65h-1.28c-.13-1.07-.34-2.12-.64-3.15-.21-.72-.6-1.38-1.13-1.91-.55-.46-1.21-.77-1.91-.89-.97-.19-1.95-.27-2.94-.25l-5.6-.25Z"/>
  <path class="st3" d="M244.54,46.75h2.59v1.45h-8.71v-1.45h2.73v-12.57h-2.37v-1.45h5.63l.14,14.03ZM242.91,27.58c-.29,0-.58-.06-.85-.18-.27-.09-.51-.23-.71-.43-.19-.2-.34-.43-.46-.67-.19-.58-.19-1.2,0-1.77.12-.25.29-.48.5-.67.19-.2.42-.36.67-.46.27-.11.56-.17.85-.18.28-.04.57-.04.85,0,.26.11.5.27.71.46.2.19.35.42.46.67.11.28.17.58.18.89,0,.3-.06.6-.18.89-.11.26-.27.5-.46.71-.21.18-.45.33-.71.43-.26.17-.55.27-.85.32Z"/>
  <path class="st3" d="M254.21,48.2h-2.55v-24.97h-1.98v-1.45h5.28v12.96h0c.49-.82,1.2-1.48,2.05-1.91.88-.4,1.83-.6,2.8-.6,1.98-.06,3.88.76,5.21,2.23.66.74,1.16,1.61,1.49,2.55.37,1.08.54,2.22.53,3.37.04,1.21-.17,2.41-.6,3.54-.35.97-.87,1.86-1.56,2.62-.65.72-1.45,1.28-2.34,1.66-.88.39-1.83.59-2.8.6-.95.02-1.89-.21-2.73-.67-.88-.46-1.6-1.17-2.05-2.05h0l-.74,2.13ZM263.49,40.41c.04-1.13-.06-2.26-.28-3.37-.12-.75-.4-1.46-.81-2.09-.31-.46-.75-.82-1.28-1.03-.53-.19-1.1-.28-1.66-.28-.73-.02-1.45.15-2.09.5-.58.31-1.05.78-1.38,1.35-.41.63-.67,1.35-.78,2.09-.18.91-.26,1.84-.25,2.76-.01.9.06,1.8.21,2.69.12.66.32,1.3.6,1.91.2.46.49.87.85,1.2.27.29.6.53.96.71.32.17.67.28,1.03.35h.89c.54,0,1.08-.09,1.59-.28.53-.19.98-.55,1.28-1.03.41-.64.7-1.35.85-2.09.18-1.12.24-2.26.18-3.4h.11Z"/>
  <path class="st3" d="M278.48,48.2h-8.93v-1.45h2.73v-12.57h-2.27v-1.45h5.45v2.94h0c.2-.46.47-.89.78-1.28.3-.39.66-.74,1.06-1.03.37-.3.79-.53,1.24-.67.43-.17.89-.25,1.35-.25.66-.02,1.3.21,1.81.64.49.46.74,1.11.71,1.77.03.57-.17,1.14-.57,1.56-.38.36-.89.56-1.42.53-.52.03-1.02-.16-1.38-.53-.33-.36-.51-.83-.5-1.31.01-.31.07-.63.18-.92-.48.19-.93.47-1.31.81-.44.39-.8.86-1.06,1.38-.34.61-.58,1.26-.71,1.95-.19.8-.28,1.62-.28,2.44v6.13h2.94l.18,1.31Z"/>
  <path class="st3" d="M298.45,43.63c-.27,1.39-1.03,2.64-2.13,3.54-1.24.98-2.78,1.48-4.36,1.42-1.12.02-2.24-.21-3.26-.67-.93-.4-1.76-.99-2.44-1.74-.67-.75-1.19-1.63-1.52-2.59-.36-1.01-.54-2.08-.53-3.15,0-1.11.17-2.21.53-3.26.35-.98.88-1.88,1.56-2.66.68-.76,1.51-1.36,2.44-1.77.99-.46,2.06-.69,3.15-.67.99-.02,1.97.17,2.87.57.83.35,1.57.88,2.16,1.56.61.7,1.08,1.52,1.38,2.41.33.99.5,2.03.5,3.08h-10.95c-.01.14-.01.28,0,.43h0c-.03,1.19.08,2.38.32,3.54.14.76.44,1.49.89,2.13.35.47.83.83,1.38,1.03.56.18,1.15.26,1.74.25.57,0,1.15-.07,1.7-.21.51-.17.99-.42,1.42-.74.45-.38.83-.84,1.13-1.35.31-.51.52-1.08.64-1.66h.74c.25.13.46.31.64.53ZM295.16,38.42c-.01-.82-.12-1.64-.32-2.44-.12-.53-.36-1.03-.71-1.45-.27-.34-.62-.6-1.03-.74-.43-.12-.87-.18-1.31-.18-.47,0-.94.07-1.38.21-.45.15-.85.42-1.17.78-.36.43-.65.92-.85,1.45-.23.77-.39,1.57-.46,2.37h7.23Z"/>
</svg>