<?xml version="1.0" encoding="UTF-8"?>
<svg id="Layer_2" data-name="Layer 2" xmlns="http://www.w3.org/2000/svg" xmlns:xlink="http://www.w3.org/1999/xlink" viewBox="0 0 90.55 79.14">
  <defs>
    <style>
      .cls-1 {
        fill: #231815;
      }

      .cls-2 {
        fill: url(#linear-gradient-2);
      }

      .cls-3 {
        fill: #2d9dd8;
      }

      .cls-4 {
        fill: url(#linear-gradient-3);
      }

      .cls-5 {
        fill: url(#linear-gradient);
      }
    </style>
    <linearGradient id="linear-gradient" x1="99.07" y1="748" x2="99.07" y2="691.95" gradientTransform="translate(-83.38 -685.26)" gradientUnits="userSpaceOnUse">
      <stop offset="0" stop-color="#ef9ec3"/>
      <stop offset="1" stop-color="#b5b6b6" stop-opacity=".4"/>
    </linearGradient>
    <linearGradient id="linear-gradient-2" x1="135.15" y1="747.54" x2="135.15" y2="691.49" xlink:href="#linear-gradient"/>
    <linearGradient id="linear-gradient-3" x1="151.36" y1="764.4" x2="151.36" y2="711.09" gradientTransform="translate(-83.38 -685.26)" gradientUnits="userSpaceOnUse">
      <stop offset="0" stop-color="#15a1db"/>
      <stop offset="1" stop-color="#2d9dd8" stop-opacity=".4"/>
    </linearGradient>
  </defs>
  <g id="Layer_1-2" data-name="Layer 1">
    <path class="cls-5" d="M29.41,52.21c-.69,1.3-3.29,6.25-7.64,6.88-2.46.35-2.87-1.07-5.73-1.15-5.85-.17-8.45,5.7-11.75,4.68-2.34-.73-3.16-4.36-3.82-7.44-.24-1.19-1.25-6.37.76-14.9.95-3.97,2.66-7.75,6.02-15.28,1.27-3.17,2.84-6.2,4.68-9.08,2.16-3.14,4.77-5.94,7.75-8.31,1.59-.92,3.48-1.16,5.24-.67,2.48.89,3.62,3.56,4.49,6.4,2.22,7.14,2.05,12.99,1.91,23.59-.11,9.26-.08,11.8-1.91,15.28Z"/>
    <path class="cls-2" d="M38.05,51.75c.69,1.3,3.3,6.25,7.64,6.88,2.48.35,2.87-1.07,5.73-1.15,5.87-.17,8.45,5.7,11.75,4.68,2.35-.73,3.16-4.36,3.82-7.46.24-1.18,1.27-6.36-.76-14.9-.95-3.96-2.64-7.73-6.02-15.28-1.27-3.16-2.83-6.2-4.68-9.06-2.16-3.13-4.76-5.93-7.73-8.31-1.59-.92-3.49-1.16-5.26-.67-2.46.89-3.61,3.56-4.49,6.4-2.2,7.14-2.03,12.99-1.91,23.59.12,9.26.08,11.8,1.91,15.28Z"/>
    <path class="cls-1" d="M36.09,0l-.49,15.11c0,1.33-.11,2.66-.29,3.97-.25,1.48-.86,2.88-1.76,4.08-.9,1.15-2.03,2.08-3.33,2.74-1.18.64-2.31,1.12-3.33,1.71-2.05,1.08-3.7,2.79-4.69,4.89-.95,2.08-.92,4.69-1.65,7.2-1.63,4.92-5.29,8.92-10.06,10.97,4.44-2.31,7.69-6.4,8.94-11.25.52-2.34.24-4.92,1.16-7.55.99-2.56,2.77-4.74,5.09-6.22,2.25-1.53,4.58-2.43,5.53-4.14.55-.86.88-1.84.98-2.86.06-1.19.06-2.37,0-3.56L31.53.09l4.55-.09h.01Z"/>
    <path class="cls-1" d="M36.09.1l-.67,15.01c-.06,1.19-.06,2.37,0,3.56.1,1.01.44,1.99.98,2.86,1.02,1.71,3.3,2.67,5.53,4.14,2.32,1.47,4.11,3.65,5.09,6.22.92,2.63.64,5.21,1.16,7.55,1.25,4.85,4.51,8.94,8.96,11.25-4.77-2.05-8.43-6.04-10.06-10.97-.75-2.51-.7-5.12-1.65-7.2-1-2.09-2.65-3.81-4.71-4.89-1.02-.6-2.14-1.07-3.33-1.71-1.3-.66-2.43-1.59-3.33-2.74-.9-1.2-1.5-2.6-1.76-4.08-.17-1.32-.27-2.64-.29-3.97L31.54.02l4.55.09h0Z"/>
    <path class="cls-4" d="M50.73,55.65c-.89-.21-5.32-2.22-5.3-6.53-.18-3.68,2.66-6.8,6.34-6.97s6.8,2.66,6.97,6.34c0,.21,0,.43,0,.64,0,4.37-4.58,6.36-5.42,6.54l.12,10.21c.2,2.66,1.28,5.17,3.06,7.15,1.42,1.82,3.49,3,5.78,3.3,2.26.07,4.46-.75,6.11-2.29,2.39-2.11,3.83-5.09,4-8.27v-8.92c-1.1-.43-2.12-1.01-3.06-1.73-1.99-1.53-2.48-2.86-4.58-6.43-.7-1.19-2.4-3.88-5.78-9.28-2.63-3.07-2.27-7.69.8-10.32.03-.03.07-.06.1-.09.67-.72,1.51-1.24,2.45-1.53.57-.16,1.17-.2,1.76-.14.17-.33.4-.63.67-.87.59-.48,1.35-.7,2.11-.61,1.49.25,2.49,1.66,2.24,3.15-.19,1.15-1.09,2.05-2.24,2.24-.59.03-1.18-.11-1.7-.38-.47-.25-.87-.62-1.18-1.05-1.6.53-2.9,1.71-3.58,3.25-.43,1.03-.51,2.16-.24,3.24.16.58.41,1.13.76,1.62l2.6,3.96c2.11,3.39,4.21,6.79,6.3,10.18,1.11,1.4,2.8,2.22,4.58,2.23.84-.09,1.76-.5,3.53-2.49,2.34-2.64,2.22-3.59,5.36-8.53,1.15-1.79,2.14-3.68,3.35-5.42.18-.29.38-.66.64-1.16,1.27-2.19.52-5-1.67-6.27-.63-.36-1.33-.57-2.06-.61-.78.85-1.92,1.25-3.06,1.07-1-.17-1.84-.85-2.2-1.8-.19-.72-.06-1.49.35-2.11.55-.73,1.41-1.14,2.32-1.12.99.05,1.9.57,2.43,1.41.58,0,1.15.09,1.7.26.87.3,1.68.78,2.37,1.39,1.26.89,2.23,2.13,2.77,3.58.37,1.14.42,2.36.14,3.53-.17.7-.46,1.37-.86,1.97-1.09,1.73-2.8,4.58-5.06,8.34l-4.58,7.93c-.74.66-1.57,1.21-2.48,1.62-.78.36-1.6.62-2.45.76v9.37c-.15,3.9-1.87,7.57-4.77,10.18-2.05,1.87-4.72,2.92-7.5,2.95-3.26-.25-6.27-1.83-8.31-4.39-2.09-2.39-3.33-5.39-3.53-8.56l-.11-10.54h0Z"/>
    <polygon class="cls-3" points="75.81 22.82 70.53 29.47 73.41 29.47 71.73 34.22 77.03 27.59 74.11 27.59 75.81 22.82"/>
  </g>
</svg>