<svg id="Layer_1" data-name="Layer 1" xmlns="http://www.w3.org/2000/svg" xmlns:xlink="http://www.w3.org/1999/xlink" viewBox="0 0 98.21 51.78"><defs><style>.cls-1{fill:url(#linear-gradient);}.cls-2{fill:url(#linear-gradient-2);}.cls-3{fill:#231815;}.cls-4{fill:url(#linear-gradient-3);}.cls-5{fill:#00a0e9;}</style><linearGradient id="linear-gradient" x1="93.66" y1="296.31" x2="93.66" y2="259.6" gradientUnits="userSpaceOnUse"><stop offset="0" stop-color="#f19ec2"/><stop offset="1" stop-color="#b5b5b6" stop-opacity="0.4"/></linearGradient><linearGradient id="linear-gradient-2" x1="117.26" y1="296.01" x2="117.26" y2="259.3" xlink:href="#linear-gradient"/><linearGradient id="linear-gradient-3" x1="127.83" y1="307.04" x2="127.83" y2="272.15" gradientUnits="userSpaceOnUse"><stop offset="0" stop-color="#00a1df"/><stop offset="1" stop-color="#00a0e9" stop-opacity="0.4"/></linearGradient></defs><title>logo-v2</title><path class="cls-1" d="M102.63,289.42c-.45.85-2.15,4.09-5,4.5-1.61.23-1.88-.7-3.75-.75-3.83-.11-5.53,3.73-7.69,3.06-1.53-.48-2.07-2.85-2.5-4.87-.16-.78-.82-4.17.5-9.75.62-2.6,1.74-5.07,3.94-10a35.68,35.68,0,0,1,3.06-5.94,25.34,25.34,0,0,1,5.07-5.44,4.45,4.45,0,0,1,3.43-.44c1.62.58,2.37,2.33,2.94,4.19,1.45,4.67,1.34,8.5,1.25,15.44C103.81,285.48,103.83,287.14,102.63,289.42Z" transform="translate(-83.38 -255.26)"/><path class="cls-2" d="M108.28,289.12c.45.85,2.16,4.09,5,4.5,1.62.23,1.88-.7,3.75-.75,3.84-.11,5.53,3.73,7.69,3.06,1.54-.48,2.07-2.85,2.5-4.88.16-.77.83-4.16-.5-9.75-.62-2.59-1.73-5.06-3.94-10a35,35,0,0,0-3.06-5.93,25.59,25.59,0,0,0-5.06-5.44,4.48,4.48,0,0,0-3.44-.44c-1.61.58-2.36,2.33-2.94,4.19-1.44,4.67-1.33,8.5-1.25,15.44C107.11,285.18,107.08,286.84,108.28,289.12Z" transform="translate(-83.38 -255.26)"/><path class="cls-3" d="M107,255.26l-.32,9.89a20.54,20.54,0,0,1-.19,2.6,6.2,6.2,0,0,1-1.15,2.67,6.45,6.45,0,0,1-2.18,1.79c-.77.42-1.51.73-2.18,1.12a7,7,0,0,0-3.07,3.2c-.62,1.36-.6,3.07-1.08,4.71a11.9,11.9,0,0,1-6.58,7.18,11.54,11.54,0,0,0,5.85-7.36c.34-1.53.16-3.22.76-4.94a8.44,8.44,0,0,1,3.33-4.07c1.47-1,3-1.59,3.62-2.71a4.22,4.22,0,0,0,.64-1.87,23,23,0,0,0,0-2.33l-.43-9.82Z" transform="translate(-83.38 -255.26)"/><path class="cls-3" d="M107,255.32l-.44,9.82a23,23,0,0,0,0,2.33,4.35,4.35,0,0,0,.64,1.87c.67,1.12,2.16,1.75,3.62,2.71a8.33,8.33,0,0,1,3.33,4.07c.6,1.72.42,3.41.76,4.94a11.53,11.53,0,0,0,5.86,7.36,11.85,11.85,0,0,1-6.58-7.18c-.49-1.64-.46-3.35-1.08-4.71a7.06,7.06,0,0,0-3.08-3.2c-.67-.39-1.4-.7-2.18-1.12a6.55,6.55,0,0,1-2.18-1.79,6.2,6.2,0,0,1-1.15-2.67,22.58,22.58,0,0,1-.19-2.6l-.31-9.89Z" transform="translate(-83.38 -255.26)"/><path class="cls-4" d="M116.58,291.67c-.58-.14-3.48-1.45-3.47-4.27a4.36,4.36,0,1,1,8.71,0c0,2.86-3,4.16-3.55,4.28l.08,6.68a7.92,7.92,0,0,0,2,4.68,5.72,5.72,0,0,0,3.78,2.16,5.6,5.6,0,0,0,4-1.5,7.77,7.77,0,0,0,2.62-5.41v-5.84a8.11,8.11,0,0,1-2-1.13c-1.3-1-1.62-1.87-3-4.21-.46-.78-1.57-2.54-3.78-6.07a4.79,4.79,0,0,1,.59-6.81,3.61,3.61,0,0,1,1.6-1,3.05,3.05,0,0,1,1.15-.09,1.94,1.94,0,0,1,.44-.57,1.86,1.86,0,0,1,1.38-.4,1.79,1.79,0,0,1,0,3.53,2.16,2.16,0,0,1-1.11-.25,2.24,2.24,0,0,1-.77-.69,3.89,3.89,0,0,0-2.34,2.13,3.38,3.38,0,0,0-.16,2.12,3.28,3.28,0,0,0,.5,1.06l1.7,2.59q2.07,3.33,4.12,6.66a3.85,3.85,0,0,0,3,1.46c.55-.06,1.15-.33,2.31-1.63,1.53-1.73,1.45-2.35,3.51-5.58.75-1.17,1.4-2.41,2.19-3.55.12-.19.25-.43.42-.76a3,3,0,0,0-2.44-4.5,2.24,2.24,0,0,1-2,.7,1.87,1.87,0,0,1-1.44-1.18,1.71,1.71,0,0,1,.23-1.38,1.84,1.84,0,0,1,1.52-.73,2,2,0,0,1,1.59.92,3.65,3.65,0,0,1,1.11.17,4.59,4.59,0,0,1,1.55.91,5,5,0,0,1,1.81,2.34,4.21,4.21,0,0,1,.09,2.31,4,4,0,0,1-.56,1.29c-.71,1.13-1.83,3-3.31,5.46l-3,5.19a6.56,6.56,0,0,1-1.62,1.06,6.34,6.34,0,0,1-1.6.5l0,6.13a9.46,9.46,0,0,1-3.12,6.66,7.4,7.4,0,0,1-4.91,1.93,7.71,7.71,0,0,1-5.44-2.87,9.42,9.42,0,0,1-2.31-5.6Z" transform="translate(-83.38 -255.26)"/><polygon class="cls-5" points="49.61 14.93 46.16 19.28 48.04 19.28 46.94 22.39 50.41 18.05 48.5 18.05 49.61 14.93"/><path class="cls-3" d="M126.74,260.08a6.67,6.67,0,0,1,1.38.12,2.91,2.91,0,0,1,.9.35,1.37,1.37,0,0,1,.5.55,1.64,1.64,0,0,1,.15.71,1.91,1.91,0,0,1-.11.64,1.69,1.69,0,0,1-.32.55,1.84,1.84,0,0,1-.52.43,3.36,3.36,0,0,1-.74.27v0a1.54,1.54,0,0,1,.58.24,1.26,1.26,0,0,1,.37.39,2,2,0,0,1,.22.52c0,.2.1.42.14.65s.08.47.11.67a3,3,0,0,0,.13.52,1,1,0,0,0,.22.34.62.62,0,0,0,.4.12h.13l.19,0v.4l-.19,0-.21,0h-.38a2,2,0,0,1-.71-.1.87.87,0,0,1-.39-.29,1.41,1.41,0,0,1-.19-.5c0-.21-.07-.45-.11-.72s-.1-.75-.15-1a2,2,0,0,0-.22-.66.74.74,0,0,0-.37-.35,1.44,1.44,0,0,0-.64-.11h-1v3.27H127v.41h-3.11v-.41h1v-6.64h-1v-.41Zm-.8,3.26.69.09a4.15,4.15,0,0,0,.92-.07,1.4,1.4,0,0,0,.6-.29,1.1,1.1,0,0,0,.33-.51,2.74,2.74,0,0,0,0-.73,2,2,0,0,0,0-.62.78.78,0,0,0-.28-.41,1.35,1.35,0,0,0-.58-.23,4.8,4.8,0,0,0-.95-.08h-.74Z" transform="translate(-83.38 -255.26)"/><path class="cls-3" d="M134.69,266.05l.2,0,.2.06a1.94,1.94,0,0,1-.64,1.14,1.86,1.86,0,0,1-1.23.4,2.1,2.1,0,0,1-.92-.19,2,2,0,0,1-.69-.49,2.14,2.14,0,0,1-.43-.73,2.64,2.64,0,0,1-.15-.89,2.54,2.54,0,0,1,.16-.92,2.13,2.13,0,0,1,.43-.75,2,2,0,0,1,.69-.5,2,2,0,0,1,.89-.19,1.92,1.92,0,0,1,.81.16,1.68,1.68,0,0,1,.61.44,2,2,0,0,1,.39.68,2.74,2.74,0,0,1,.14.87h-3.09a.68.68,0,0,0,0,.12v0a4.36,4.36,0,0,0,.09,1,1.69,1.69,0,0,0,.25.6.84.84,0,0,0,.39.29,1.55,1.55,0,0,0,.5.07,1.84,1.84,0,0,0,.47-.06,1,1,0,0,0,.4-.21m0-2.22a3,3,0,0,0-.09-.69,1,1,0,0,0-.2-.41.66.66,0,0,0-.29-.21,1.38,1.38,0,0,0-.37-.05,1.23,1.23,0,0,0-.39.06.77.77,0,0,0-.33.22,1.43,1.43,0,0,0-.24.41,3.31,3.31,0,0,0-.13.67,9.66,9.66,0,0,1,1,0C133.43,264.73,133.79,264.75,134.12,264.78Z" transform="translate(-83.38 -255.26)"/><path class="cls-3" d="M139,264.62a2.52,2.52,0,0,0-.11-.56,1.17,1.17,0,0,0-.23-.38.78.78,0,0,0-.35-.21,1.65,1.65,0,0,0-.46-.06,1.4,1.4,0,0,0-.37,0,.82.82,0,0,0-.3.11.76.76,0,0,0-.19.21.58.58,0,0,0,0,.3.6.6,0,0,0,0,.31.58.58,0,0,0,.21.2,1.61,1.61,0,0,0,.37.17l.56.2.53.19a2.12,2.12,0,0,1,.47.26,1.33,1.33,0,0,1,.34.37,1.12,1.12,0,0,1,.13.53,1.21,1.21,0,0,1-.16.62,1.33,1.33,0,0,1-.42.43,1.78,1.78,0,0,1-.6.25,2.59,2.59,0,0,1-.68.09l-.4,0-.41-.06c-.13,0-.26-.05-.38-.09a2,2,0,0,1-.32-.1l0-1.49h.36a2.32,2.32,0,0,0,.11.66.94.94,0,0,0,.23.42.89.89,0,0,0,.37.23,2,2,0,0,0,.51.07,2.48,2.48,0,0,0,.41,0,1,1,0,0,0,.33-.13.66.66,0,0,0,.22-.22.64.64,0,0,0,0-.32.63.63,0,0,0,0-.29.52.52,0,0,0-.19-.2,2.3,2.3,0,0,0-.35-.17l-.5-.17-.56-.22a2.19,2.19,0,0,1-.48-.26,1.3,1.3,0,0,1-.32-.38,1,1,0,0,1-.13-.54,1.14,1.14,0,0,1,.15-.6,1.18,1.18,0,0,1,.38-.42,1.61,1.61,0,0,1,.55-.24,2.29,2.29,0,0,1,.64-.08,2.23,2.23,0,0,1,.36,0l.36,0,.35.07.31.08,0,1.38Z" transform="translate(-83.38 -255.26)"/><path class="cls-3" d="M145.21,264.38a2.16,2.16,0,0,0-.43-.72,1.87,1.87,0,0,0-.64-.47,2,2,0,0,0-.81-.16,1.66,1.66,0,0,0-.8.19,1.42,1.42,0,0,0-.59.6h0v-.65h-1.69v.41H141V270h0v.41h.92v-.53h0v-2.91h0a1.47,1.47,0,0,0,.58.58,1.57,1.57,0,0,0,.77.19,1.93,1.93,0,0,0,.79-.17,1.9,1.9,0,0,0,.66-.47,2.1,2.1,0,0,0,.45-.74,2.76,2.76,0,0,0,.17-1A2.87,2.87,0,0,0,145.21,264.38Zm-1,1.95a1.55,1.55,0,0,1-.23.59.74.74,0,0,1-.36.28,1.23,1.23,0,0,1-.44.08l-.25,0a1.52,1.52,0,0,1-.28-.09,1,1,0,0,1-.28-.2,1,1,0,0,1-.25-.34,2.12,2.12,0,0,1-.17-.52,3.21,3.21,0,0,1-.07-.74,4.56,4.56,0,0,1,.07-.76,1.9,1.9,0,0,1,.23-.62,1.09,1.09,0,0,1,1-.56,1.33,1.33,0,0,1,.45.08.82.82,0,0,1,.36.29,1.73,1.73,0,0,1,.23.59,4.91,4.91,0,0,1,.08,1A4.36,4.36,0,0,1,144.25,266.33Z" transform="translate(-83.38 -255.26)"/><path class="cls-3" d="M147.77,267.13h.77v.41h-2.46v-.41h.77v-3.55h-.65l0-.41h1.6Z" transform="translate(-83.38 -255.26)"/><path class="cls-3" d="M147.31,261.72a.6.6,0,0,1-.24-.05.51.51,0,0,1-.2-.12.59.59,0,0,1-.13-.19.65.65,0,0,1,0-.5.64.64,0,0,1,.13-.19.53.53,0,0,1,.2-.13.6.6,0,0,1,.24-.05.86.86,0,0,1,.24,0,.69.69,0,0,1,.2.13.59.59,0,0,1,.13.19.7.7,0,0,1,.05.25.66.66,0,0,1-.05.25,1,1,0,0,1-.13.2.67.67,0,0,1-.2.12A.6.6,0,0,1,147.31,261.72Z" transform="translate(-83.38 -255.26)"/><path class="cls-3" d="M151.6,267.54h-2.52v-.41h.77v-3.55h-.71v-.41h1.64V264h0a1.81,1.81,0,0,1,.53-.65,1,1,0,0,1,.34-.19,1,1,0,0,1,.38-.07.74.74,0,0,1,.51.18.64.64,0,0,1,.2.5.6.6,0,0,1-.16.44.54.54,0,0,1-.4.15.5.5,0,0,1-.39-.15.53.53,0,0,1-.14-.37.85.85,0,0,1,.05-.26,1.2,1.2,0,0,0-.37.23,1.31,1.31,0,0,0-.3.39,2.09,2.09,0,0,0-.2.55,3,3,0,0,0-.07.69v1.73h.82Z" transform="translate(-83.38 -255.26)"/><path class="cls-3" d="M157.5,267.54a1.63,1.63,0,0,1-.36,0h-.29a1.82,1.82,0,0,1-.45,0,.66.66,0,0,1-.28-.13.43.43,0,0,1-.15-.2.91.91,0,0,1-.06-.26h0a1.72,1.72,0,0,1-.31.34,1.46,1.46,0,0,1-.35.22,1.27,1.27,0,0,1-.36.12,2.45,2.45,0,0,1-.38,0,1.6,1.6,0,0,1-.56-.09,1.16,1.16,0,0,1-.42-.24.9.9,0,0,1-.25-.36,1.23,1.23,0,0,1-.09-.47,1.17,1.17,0,0,1,.7-1.09,4.61,4.61,0,0,1,2-.4c0-.15,0-.29,0-.41v-.37a.87.87,0,0,0-.19-.65.83.83,0,0,0-.61-.19,2,2,0,0,0-.5.06,1.27,1.27,0,0,0-.35.16,1,1,0,0,1,.18.25.65.65,0,0,1,.06.26.5.5,0,0,1-.52.51.52.52,0,0,1-.37-.13.52.52,0,0,1-.12-.17.79.79,0,0,1,0-.23.78.78,0,0,1,.12-.41,1,1,0,0,1,.34-.35,1.67,1.67,0,0,1,.57-.25,3.15,3.15,0,0,1,.8-.09,2.54,2.54,0,0,1,.65.07,1.32,1.32,0,0,1,.49.24,1,1,0,0,1,.29.44,2,2,0,0,1,.1.69v.34c0,.15,0,.33,0,.51v.58c0,.19,0,.36,0,.51s0,.27,0,.37a.7.7,0,0,0,.06.25.18.18,0,0,0,.12.12.47.47,0,0,0,.23,0l.3,0Zm-1.61-2.11a5.15,5.15,0,0,0-.9.08,1.53,1.53,0,0,0-.54.2.6.6,0,0,0-.25.3,1.07,1.07,0,0,0-.07.41.86.86,0,0,0,.17.6.57.57,0,0,0,.46.2,1,1,0,0,0,.35-.07,1.14,1.14,0,0,0,.38-.22,1.32,1.32,0,0,0,.29-.39,1.6,1.6,0,0,0,.11-.62Z" transform="translate(-83.38 -255.26)"/><path class="cls-3" d="M160.13,260.49v3.13h.68a4.56,4.56,0,0,0,.57,0,.57.57,0,0,0,.37-.15.74.74,0,0,0,.22-.38,4.58,4.58,0,0,0,.1-.73h.36v3.09h-.36a5.12,5.12,0,0,0-.09-.75.92.92,0,0,0-.2-.42.64.64,0,0,0-.37-.17,3.39,3.39,0,0,0-.6,0h-.68v3.09H161v.41H158.1v-.41h1v-6.64h-1v-.41h5.72l.12,2.16h-.36a5.5,5.5,0,0,0-.18-.89,1.29,1.29,0,0,0-.32-.54,1.13,1.13,0,0,0-.54-.25,3.89,3.89,0,0,0-.83-.07Z" transform="translate(-83.38 -255.26)"/><path class="cls-3" d="M166.27,267.13H167v.41h-2.46v-.41h.77v-3.55h-.67v-.41h1.59Zm-.46-5.41a.6.6,0,0,1-.24-.05.51.51,0,0,1-.2-.12.8.8,0,0,1-.13-.19.8.8,0,0,1,0-.5.67.67,0,0,1,.14-.19.5.5,0,0,1,.19-.13.69.69,0,0,1,.24-.05.86.86,0,0,1,.24,0,.69.69,0,0,1,.2.13.59.59,0,0,1,.13.19.7.7,0,0,1,.05.25.66.66,0,0,1-.05.25.69.69,0,0,1-.13.2.67.67,0,0,1-.2.12A.6.6,0,0,1,165.81,261.72Z" transform="translate(-83.38 -255.26)"/><path class="cls-3" d="M169,267.54h-.72v-7.05h-.56v-.41h1.49v3.66h0a1.43,1.43,0,0,1,.58-.54,1.93,1.93,0,0,1,.79-.17,1.9,1.9,0,0,1,1.47.63,2.14,2.14,0,0,1,.42.72,2.87,2.87,0,0,1,.15.95,2.55,2.55,0,0,1-.17,1,2.24,2.24,0,0,1-.44.74,1.9,1.9,0,0,1-.66.47,2,2,0,0,1-.79.17,1.54,1.54,0,0,1-.77-.19,1.35,1.35,0,0,1-.58-.58h0Zm2.62-2.2a4.15,4.15,0,0,0-.08-.95,1.55,1.55,0,0,0-.23-.59.77.77,0,0,0-.36-.29,1.4,1.4,0,0,0-.47-.08,1.2,1.2,0,0,0-.59.14,1,1,0,0,0-.39.38,1.48,1.48,0,0,0-.22.59,3.71,3.71,0,0,0-.07.78,4.18,4.18,0,0,0,.06.76,2.29,2.29,0,0,0,.17.54,1,1,0,0,0,.24.34.94.94,0,0,0,.27.2,1.11,1.11,0,0,0,.29.1l.25,0a1.29,1.29,0,0,0,.45-.08.71.71,0,0,0,.36-.29,1.72,1.72,0,0,0,.24-.59A4.43,4.43,0,0,0,171.59,265.34Z" transform="translate(-83.38 -255.26)"/><path class="cls-3" d="M175.85,267.54h-2.52v-.41h.77v-3.55h-.64v-.41H175V264h0a1.65,1.65,0,0,1,.22-.36,1.37,1.37,0,0,1,.3-.29,1.09,1.09,0,0,1,.35-.19,1,1,0,0,1,.38-.07.76.76,0,0,1,.51.18.64.64,0,0,1,.2.5.6.6,0,0,1-.16.44.54.54,0,0,1-.4.15.5.5,0,0,1-.39-.15.53.53,0,0,1-.14-.37.85.85,0,0,1,.05-.26,1.2,1.2,0,0,0-.37.23,1.31,1.31,0,0,0-.3.39,1.79,1.79,0,0,0-.2.55,3,3,0,0,0-.08.69v1.73h.83Z" transform="translate(-83.38 -255.26)"/><path class="cls-3" d="M181.49,266.25a1.72,1.72,0,0,1-.6,1,1.87,1.87,0,0,1-1.23.4,2.1,2.1,0,0,1-.92-.19,2,2,0,0,1-.69-.49,2.14,2.14,0,0,1-.43-.73,2.64,2.64,0,0,1-.15-.89,2.77,2.77,0,0,1,.15-.92,2.32,2.32,0,0,1,.44-.75,2,2,0,0,1,.69-.5,2,2,0,0,1,.89-.19,1.92,1.92,0,0,1,.81.16,1.68,1.68,0,0,1,.61.44,2,2,0,0,1,.39.68,2.74,2.74,0,0,1,.14.87H178.5a.68.68,0,0,0,0,.12v0a4.36,4.36,0,0,0,.09,1,1.53,1.53,0,0,0,.25.6.84.84,0,0,0,.39.29,1.53,1.53,0,0,0,.49.07,1.86,1.86,0,0,0,.48-.06,1.39,1.39,0,0,0,.4-.21,1.5,1.5,0,0,0,.32-.38,1.44,1.44,0,0,0,.18-.47l.21,0A.6.6,0,0,1,181.49,266.25Zm-.93-1.47a3,3,0,0,0-.09-.69,1,1,0,0,0-.2-.41.66.66,0,0,0-.29-.21,1.44,1.44,0,0,0-.37-.05,1.23,1.23,0,0,0-.39.06.77.77,0,0,0-.33.22,1.43,1.43,0,0,0-.24.41,3.31,3.31,0,0,0-.13.67Z" transform="translate(-83.38 -255.26)"/></svg>